<svg width="508" height="276" viewBox="0 0 508 276" fill="none" xmlns="http://www.w3.org/2000/svg">
<path d="M263.248 275.75V172.25H299.248V275.75H263.248Z" fill="white"/>
<path d="M368.498 275.75V172.25H404.498V275.75H368.498Z" fill="white"/>
<path d="M368.498 108.25V4.75H404.498V108.25H368.498Z" fill="white"/>
<path d="M404.248 239.751L507.746 239.035L507.995 275.034L404.498 275.75L404.248 239.751Z" fill="white"/>
<path d="M262.498 159.348V123.347L403.109 123.069L403.978 159.068L262.498 159.348Z" fill="white"/>
<path d="M42.847 159.784L41.9778 123.785L82.4973 123.704V159.705L42.847 159.784Z" fill="white"/>
<path d="M90.7476 83.5C86.8114 91.2903 83.8436 99.706 81.8441 108.747L44.4307 108.846C45.9713 99.8154 48.2436 91.2 51.2476 83C57.4143 66 66.2476 51.3333 77.7476 39C89.2476 26.5 102.914 16.9167 118.748 10.25C134.581 3.41667 152.248 0 171.748 0C190.581 0 206.248 3.08334 218.748 9.25002C231.415 15.25 241.248 23.5833 248.248 34.25C255.248 44.75 259.748 56.8333 261.748 70.5H270.498L263.248 108.25C261.081 93.25 256.165 80.0833 248.498 68.75C240.831 57.25 230.831 48.3333 218.498 42C206.165 35.5 191.915 32.25 175.748 32.25C156.415 32.25 139.414 36.8333 124.748 46C110.248 55 98.9143 67.5 90.7476 83.5ZM263.248 108.25V4.75002H299.248V108.25H263.248Z" fill="white"/>
<path d="M299.498 206C289.998 227.5 274.748 244.5 253.748 257C232.915 269.5 207.831 275.75 178.498 275.75C150.831 275.75 126.748 269.917 106.248 258.25C85.9143 246.583 70.0809 230.5 58.7476 210C52.3588 198.176 47.7976 185.343 45.064 171.5L82.7949 171.5C84.7909 179.005 87.5251 186.089 90.9976 192.75C99.3309 208.25 110.914 220.417 125.748 229.25C140.748 238.083 158.415 242.5 178.748 242.5C199.748 242.5 217.831 237.917 232.998 228.75C248.165 219.417 259.248 206.917 266.248 191.25L299.498 206Z" fill="white"/>
</svg>
