<svg width="544" height="277" viewBox="0 0 544 277" fill="none" xmlns="http://www.w3.org/2000/svg">
<path d="M218 275.144V171.55H254V275.144H218Z" fill="white"/>
<path d="M371.498 276.246V172.652H407.498V242.5H543.5V276.246H407.498H371.498Z" fill="white"/>
<path d="M371.498 108.594V5H407.498V108.594H371.498Z" fill="white"/>
<path d="M220 159V123H407V158.719L220 159Z" fill="white"/>
<path d="M0.817261 158.033C0.817261 158.033 0.528447 154.155 0.294201 149.528C0.134261 146.368 -0.000240152 142.86 3.21961e-07 140C0.000240096 137.148 0.294201 130.5 0.294201 130.5L0.817261 122H39.5L39.25 131L39 140L39.25 149.017L39.5 158.033H0.817261Z" fill="white"/>
<path d="M48.7476 83.5757C44.8114 91.373 41.8436 99.7963 39.8441 108.846L2.43066 108.945C3.97131 99.9059 6.24362 91.2827 9.24759 83.0753C15.4143 66.0598 24.2476 51.3798 35.7476 39.0354C47.2476 26.524 60.9143 16.9321 76.7476 10.2593C92.5809 3.41976 110.248 0 129.748 0C148.581 0 164.248 3.08613 176.748 9.2584C189.415 15.2638 199.248 23.6047 206.248 34.2811C213.248 44.7906 217.748 56.8848 219.748 70.5639H228.498L221.248 108.348C219.081 93.3345 214.165 80.1559 206.498 68.8123C198.831 57.3019 188.831 48.3771 176.498 42.0381C164.165 35.5322 149.915 32.2793 133.748 32.2793C114.415 32.2793 97.4143 36.8667 82.7476 46.0417C68.2476 55.0499 56.9143 67.5612 48.7476 83.5757ZM221.248 108.348V4.75432H257.248V108.348H221.248Z" fill="white"/>
<path d="M249 210.19C239.5 231.71 232.748 244.722 211.748 257.233C190.915 269.744 165.831 276 136.498 276C108.831 276 84.7476 270.162 64.2476 258.484C43.9143 246.807 28.0809 230.709 16.7476 210.19C10.3588 198.355 5.7976 185.51 3.06403 171.655L40.7949 171.656C42.7909 179.167 45.5251 186.257 48.9976 192.925C57.3309 208.439 68.9143 220.617 83.7476 229.458C98.7476 238.299 116.415 242.72 136.748 242.72C157.748 242.72 175.831 238.133 190.998 228.957C206.165 219.616 217.248 207.105 224.248 191.423L249 210.19Z" fill="white"/>
</svg>
