<svg width="1024" height="1024" viewBox="0 0 1024 1024" fill="none" xmlns="http://www.w3.org/2000/svg">
<rect width="1024" height="1024" fill="white"/>
<path d="M82.6 652.95C69.7667 652.95 56.7 651.317 43.4 648.05C30.3333 645.017 19.3667 640.933 10.5 635.8L12.6 587.15H22.75L33.6 611.3C36.8667 618.067 40.25 623.667 43.75 628.1C47.25 632.533 51.9167 635.917 57.75 638.25C61.7167 639.883 65.45 641.05 68.95 641.75C72.6833 642.217 76.7667 642.45 81.2 642.45C95.4333 642.45 106.633 638.833 114.8 631.6C123.2 624.133 127.4 614.333 127.4 602.2C127.4 591.233 124.483 582.6 118.65 576.3C113.05 570 103.95 563.933 91.35 558.1L77 551.8C57.4 543.167 41.8833 533.133 30.45 521.7C19.25 510.267 13.65 495.1 13.65 476.2C13.65 462.2 17.15 450.3 24.15 440.5C31.3833 430.467 41.3 422.767 53.9 417.4C66.5 412.033 81.2 409.35 98 409.35C110.367 409.35 121.917 410.983 132.65 414.25C143.617 417.517 153.183 421.95 161.35 427.55L158.9 470.95H148.75L135.8 444.7C132.067 437 128.45 431.517 124.95 428.25C121.683 424.75 117.6 422.533 112.7 421.6C109.9 421.133 107.45 420.783 105.35 420.55C103.483 420.317 100.917 420.2 97.65 420.2C86.2167 420.2 76.3 423.583 67.9 430.35C59.7333 436.883 55.65 445.983 55.65 457.65C55.65 468.85 58.8 477.95 65.1 484.95C71.4 491.95 80.5 498.133 92.4 503.5L108.15 510.15C130.783 519.95 147 530.45 156.8 541.65C166.6 552.617 171.5 566.733 171.5 584C171.5 604.533 163.683 621.217 148.05 634.05C132.65 646.65 110.833 652.95 82.6 652.95ZM251.226 651.9C236.76 651.9 225.326 648.4 216.926 641.4C208.76 634.167 204.676 622.5 204.676 606.4C204.676 600.8 204.676 595.55 204.676 590.65C204.91 585.517 205.026 579.567 205.026 572.8V489.85H180.176V482.15L189.626 480.75C196.393 479.583 202.11 477.483 206.776 474.45C211.676 471.417 216.11 467.217 220.076 461.85L242.826 430.35H253.326L252.276 479H292.176V489.85H251.926V609.2C251.926 617.6 253.676 623.9 257.176 628.1C260.91 632.3 265.46 634.4 270.826 634.4C275.493 634.4 279.693 633.35 283.426 631.25C287.16 628.917 290.893 625.883 294.626 622.15L299.176 627.4C294.743 635.1 288.56 641.167 280.626 645.6C272.693 649.8 262.893 651.9 251.226 651.9ZM361.616 651.9C348.316 651.9 336.999 648.167 327.666 640.7C318.566 633 314.016 622.033 314.016 607.8C314.016 596.6 319.382 586.333 330.116 577C341.082 567.433 358.232 560.433 381.566 556C385.532 555.067 390.082 554.25 395.216 553.55C400.582 552.617 405.832 551.683 410.966 550.75V525.9C410.966 510.033 408.982 499.067 405.016 493C401.049 486.933 394.749 483.9 386.116 483.9H385.066C379.699 483.9 375.382 485.65 372.116 489.15C369.082 492.417 367.099 497.9 366.166 505.6L365.116 510.15C364.416 519.483 361.966 526.367 357.766 530.8C353.566 535 348.316 537.1 342.016 537.1C336.182 537.1 331.282 535.35 327.316 531.85C323.582 528.117 321.716 523.333 321.716 517.5C321.716 507.933 324.982 499.883 331.516 493.35C338.049 486.817 346.682 481.917 357.416 478.65C368.382 475.383 380.166 473.75 392.766 473.75C413.532 473.75 429.399 478.767 440.366 488.8C451.332 498.833 456.816 515.167 456.816 537.8V615.85C456.816 625.883 461.599 630.9 471.166 630.9H479.216L482.716 634.75C478.516 640.117 473.849 644.2 468.716 647C463.582 650.033 456.582 651.55 447.716 651.55C437.682 651.55 429.632 649.217 423.566 644.55C417.732 639.65 413.882 633.233 412.016 625.3C404.549 633.233 397.199 639.65 389.966 644.55C382.732 649.45 373.282 651.9 361.616 651.9ZM381.916 629.5C386.582 629.5 391.016 628.45 395.216 626.35C399.416 624.25 404.666 620.75 410.966 615.85V559.85C404.899 560.783 398.716 561.95 392.416 563.35C382.382 565.683 374.216 570 367.916 576.3C361.849 582.6 358.816 591.117 358.816 601.85C358.816 611.183 360.916 618.183 365.116 622.85C369.549 627.283 375.149 629.5 381.916 629.5ZM516.324 731.35C506.99 731.35 499.64 729.133 494.274 724.7C488.907 720.267 486.224 714.433 486.224 707.2C486.224 700.667 488.44 695.417 492.874 691.45C497.54 687.717 502.674 685.85 508.274 685.85C514.107 685.85 518.89 686.9 522.624 689C526.357 691.1 529.624 694.133 532.424 698.1L534.524 700.9C539.89 707.433 544.907 707.317 549.574 700.55C552.607 696.583 555.524 691.683 558.324 685.85C561.357 680.017 564.624 672.317 568.124 662.75L501.624 503.85C499.99 499.417 498.124 496.033 496.024 493.7C493.924 491.133 490.774 489.033 486.574 487.4L480.624 485.3V479H567.074V485.3L559.724 487.4C554.59 489.033 551.79 491.6 551.324 495.1C551.09 498.367 551.907 502.683 553.774 508.05L589.474 601.15L623.774 507.35C625.641 502.217 626.341 497.9 625.874 494.4C625.407 490.9 622.491 488.567 617.124 487.4L609.424 485.3V479H661.574V485.3L653.874 487.75C648.741 489.15 645.007 491.25 642.674 494.05C640.574 496.617 638.591 500.467 636.724 505.6L580.724 656.1C571.391 681.767 561.824 700.667 552.024 712.8C542.457 725.167 530.557 731.35 516.324 731.35ZM675.62 402H789.72V647H675.62V402ZM807.155 647V640.35L812.755 638.95C820.455 636.617 824.305 630.9 824.305 621.8V518.55C824.071 513.65 823.255 509.917 821.855 507.35C820.455 504.55 817.421 502.683 812.755 501.75L807.155 500.35V494.05L863.855 473.75L868.055 477.6L870.505 499.3C878.905 491.833 888.238 485.767 898.505 481.1C909.005 476.2 919.271 473.75 929.305 473.75C944.705 473.75 956.488 477.95 964.655 486.35C973.055 494.75 977.255 507.583 977.255 524.85V622.15C977.255 631.25 981.455 636.967 989.855 639.3L993.705 640.35V647H913.205V640.35L918.455 638.95C926.155 636.383 930.005 630.667 930.005 621.8V517.85C930.005 509.683 928.255 503.733 924.755 500C921.255 496.267 915.421 494.4 907.255 494.4C895.821 494.4 883.921 499.417 871.555 509.45V622.15C871.555 631.25 875.638 636.967 883.805 639.3L887.305 640.35V647H807.155Z" fill="black"/>
<rect x="694" y="425" width="22" height="22" rx="3" fill="white"/>
<rect x="694" y="501" width="22" height="22" rx="3" fill="white"/>
<rect x="694" y="463" width="22" height="22" rx="3" fill="white"/>
<rect x="694" y="539" width="22" height="22" rx="3" fill="white"/>
<rect x="694" y="577" width="22" height="22" rx="3" fill="white"/>
<rect x="752" y="425" width="22" height="22" rx="3" fill="white"/>
<rect x="752" y="501" width="22" height="22" rx="3" fill="white"/>
<rect x="752" y="463" width="22" height="22" rx="3" fill="white"/>
<rect x="752" y="539" width="22" height="22" rx="3" fill="white"/>
<rect x="752" y="577" width="22" height="22" rx="3" fill="white"/>
<rect x="721" y="619" width="26" height="28" fill="#6B6B6B"/>
</svg>
