<svg width="1024" height="1024" viewBox="0 0 1024 1024" fill="none" xmlns="http://www.w3.org/2000/svg">
<rect width="1024" height="1024" fill="#706F6F"/>
<path d="M93.6 658.95C80.7667 658.95 67.7 657.317 54.4 654.05C41.3333 651.017 30.3667 646.933 21.5 641.8L23.6 593.15H33.75L44.6 617.3C47.8667 624.067 51.25 629.667 54.75 634.1C58.25 638.533 62.9167 641.917 68.75 644.25C72.7167 645.883 76.45 647.05 79.95 647.75C83.6833 648.217 87.7667 648.45 92.2 648.45C106.433 648.45 117.633 644.833 125.8 637.6C134.2 630.133 138.4 620.333 138.4 608.2C138.4 597.233 135.483 588.6 129.65 582.3C124.05 576 114.95 569.933 102.35 564.1L88 557.8C68.4 549.167 52.8833 539.133 41.45 527.7C30.25 516.267 24.65 501.1 24.65 482.2C24.65 468.2 28.15 456.3 35.15 446.5C42.3833 436.467 52.3 428.767 64.9 423.4C77.5 418.033 92.2 415.35 109 415.35C121.367 415.35 132.917 416.983 143.65 420.25C154.617 423.517 164.183 427.95 172.35 433.55L169.9 476.95H159.75L146.8 450.7C143.067 443 139.45 437.517 135.95 434.25C132.683 430.75 128.6 428.533 123.7 427.6C120.9 427.133 118.45 426.783 116.35 426.55C114.483 426.317 111.917 426.2 108.65 426.2C97.2167 426.2 87.3 429.583 78.9 436.35C70.7333 442.883 66.65 451.983 66.65 463.65C66.65 474.85 69.8 483.95 76.1 490.95C82.4 497.95 91.5 504.133 103.4 509.5L119.15 516.15C141.783 525.95 158 536.45 167.8 547.65C177.6 558.617 182.5 572.733 182.5 590C182.5 610.533 174.683 627.217 159.05 640.05C143.65 652.65 121.833 658.95 93.6 658.95ZM262.226 657.9C247.76 657.9 236.326 654.4 227.926 647.4C219.76 640.167 215.676 628.5 215.676 612.4C215.676 606.8 215.676 601.55 215.676 596.65C215.91 591.517 216.026 585.567 216.026 578.8V495.85H191.176V488.15L200.626 486.75C207.393 485.583 213.11 483.483 217.776 480.45C222.676 477.417 227.11 473.217 231.076 467.85L253.826 436.35H264.326L263.276 485H303.176V495.85H262.926V615.2C262.926 623.6 264.676 629.9 268.176 634.1C271.91 638.3 276.46 640.4 281.826 640.4C286.493 640.4 290.693 639.35 294.426 637.25C298.16 634.917 301.893 631.883 305.626 628.15L310.176 633.4C305.743 641.1 299.56 647.167 291.626 651.6C283.693 655.8 273.893 657.9 262.226 657.9ZM372.616 657.9C359.316 657.9 347.999 654.167 338.666 646.7C329.566 639 325.016 628.033 325.016 613.8C325.016 602.6 330.382 592.333 341.116 583C352.082 573.433 369.232 566.433 392.566 562C396.532 561.067 401.082 560.25 406.216 559.55C411.582 558.617 416.832 557.683 421.966 556.75V531.9C421.966 516.033 419.982 505.067 416.016 499C412.049 492.933 405.749 489.9 397.116 489.9H396.066C390.699 489.9 386.382 491.65 383.116 495.15C380.082 498.417 378.099 503.9 377.166 511.6L376.116 516.15C375.416 525.483 372.966 532.367 368.766 536.8C364.566 541 359.316 543.1 353.016 543.1C347.182 543.1 342.282 541.35 338.316 537.85C334.582 534.117 332.716 529.333 332.716 523.5C332.716 513.933 335.982 505.883 342.516 499.35C349.049 492.817 357.682 487.917 368.416 484.65C379.382 481.383 391.166 479.75 403.766 479.75C424.532 479.75 440.399 484.767 451.366 494.8C462.332 504.833 467.816 521.167 467.816 543.8V621.85C467.816 631.883 472.599 636.9 482.166 636.9H490.216L493.716 640.75C489.516 646.117 484.849 650.2 479.716 653C474.582 656.033 467.582 657.55 458.716 657.55C448.682 657.55 440.632 655.217 434.566 650.55C428.732 645.65 424.882 639.233 423.016 631.3C415.549 639.233 408.199 645.65 400.966 650.55C393.732 655.45 384.282 657.9 372.616 657.9ZM392.916 635.5C397.582 635.5 402.016 634.45 406.216 632.35C410.416 630.25 415.666 626.75 421.966 621.85V565.85C415.899 566.783 409.716 567.95 403.416 569.35C393.382 571.683 385.216 576 378.916 582.3C372.849 588.6 369.816 597.117 369.816 607.85C369.816 617.183 371.916 624.183 376.116 628.85C380.549 633.283 386.149 635.5 392.916 635.5ZM527.324 737.35C517.99 737.35 510.64 735.133 505.274 730.7C499.907 726.267 497.224 720.433 497.224 713.2C497.224 706.667 499.44 701.417 503.874 697.45C508.54 693.717 513.674 691.85 519.274 691.85C525.107 691.85 529.89 692.9 533.624 695C537.357 697.1 540.624 700.133 543.424 704.1L545.524 706.9C550.89 713.433 555.907 713.317 560.574 706.55C563.607 702.583 566.524 697.683 569.324 691.85C572.357 686.017 575.624 678.317 579.124 668.75L512.624 509.85C510.99 505.417 509.124 502.033 507.024 499.7C504.924 497.133 501.774 495.033 497.574 493.4L491.624 491.3V485H578.074V491.3L570.724 493.4C565.59 495.033 562.79 497.6 562.324 501.1C562.09 504.367 562.907 508.683 564.774 514.05L600.474 607.15L634.774 513.35C636.641 508.217 637.341 503.9 636.874 500.4C636.407 496.9 633.491 494.567 628.124 493.4L620.424 491.3V485H672.574V491.3L664.874 493.75C659.741 495.15 656.007 497.25 653.674 500.05C651.574 502.617 649.591 506.467 647.724 511.6L591.724 662.1C582.391 687.767 572.824 706.667 563.024 718.8C553.457 731.167 541.557 737.35 527.324 737.35ZM686.62 408H800.72V653H686.62V408ZM818.155 653V646.35L823.755 644.95C831.455 642.617 835.305 636.9 835.305 627.8V524.55C835.071 519.65 834.255 515.917 832.855 513.35C831.455 510.55 828.421 508.683 823.755 507.75L818.155 506.35V500.05L874.855 479.75L879.055 483.6L881.505 505.3C889.905 497.833 899.238 491.767 909.505 487.1C920.005 482.2 930.271 479.75 940.305 479.75C955.705 479.75 967.488 483.95 975.655 492.35C984.055 500.75 988.255 513.583 988.255 530.85V628.15C988.255 637.25 992.455 642.967 1000.85 645.3L1004.7 646.35V653H924.205V646.35L929.455 644.95C937.155 642.383 941.005 636.667 941.005 627.8V523.85C941.005 515.683 939.255 509.733 935.755 506C932.255 502.267 926.421 500.4 918.255 500.4C906.821 500.4 894.921 505.417 882.555 515.45V628.15C882.555 637.25 886.638 642.967 894.805 645.3L898.305 646.35V653H818.155Z" fill="white"/>
<rect x="705" y="431" width="22" height="22" rx="3" fill="black"/>
<rect x="705" y="507" width="22" height="22" rx="3" fill="black"/>
<rect x="705" y="469" width="22" height="22" rx="3" fill="black"/>
<rect x="705" y="545" width="22" height="22" rx="3" fill="black"/>
<rect x="705" y="583" width="22" height="22" rx="3" fill="black"/>
<rect x="763" y="431" width="22" height="22" rx="3" fill="black"/>
<rect x="763" y="507" width="22" height="22" rx="3" fill="black"/>
<rect x="763" y="469" width="22" height="22" rx="3" fill="black"/>
<rect x="763" y="545" width="22" height="22" rx="3" fill="black"/>
<rect x="763" y="583" width="22" height="22" rx="3" fill="black"/>
<rect x="732" y="625" width="26" height="28" fill="#6B6B6B"/>
</svg>
